<svg viewBox="0 0 512 512.00115" xmlns="http://www.w3.org/2000/svg"><path d="m22.664062 364.167969h100.957032v132.378906h-100.957032zm0 0" fill="#685c79"/><path d="m92.714844 364.167969h30.90625v132.378906h-30.90625zm0 0" fill="#594f69"/><path d="m388.378906 364.167969h100.957032v132.378906h-100.957032zm0 0" fill="#685c79"/><path d="m458.429688 364.167969h30.90625v132.378906h-30.90625zm0 0" fill="#594f69"/><path d="m132.894531 379.621094h-117.441406c-8.535156 0-15.453125-6.917969-15.453125-15.453125v-127.742188c0-8.53125 6.917969-15.453125 15.453125-15.453125s15.453125 6.921875 15.453125 15.453125v112.292969h101.988281c8.535157 0 15.453125 6.917969 15.453125 15.453125s-6.917968 15.449219-15.453125 15.449219zm0 0" fill="#ebe4e2"/><path d="m132.894531 348.714844h-30.902343c8.535156 0 15.453124 6.917968 15.453124 15.453125 0 8.535156-6.917968 15.453125-15.453124 15.453125h30.902343c8.53125 0 15.453125-6.917969 15.453125-15.453125 0-8.53125-6.917968-15.453125-15.453125-15.453125zm0 0" fill="#d1c4c4"/><path d="m379.109375 379.621094h117.4375c8.535156 0 15.453125-6.917969 15.453125-15.453125v-127.742188c0-8.53125-6.917969-15.453125-15.453125-15.453125-8.53125 0-15.453125 6.921875-15.453125 15.453125v112.292969h-101.984375c-8.535156 0-15.453125 6.917969-15.453125 15.453125s6.917969 15.449219 15.453125 15.449219zm0 0" fill="#ebe4e2"/><path d="m496.546875 220.972656c-8.535156 0-15.453125 6.921875-15.453125 15.453125v112.292969h-.089844v15.453125c0 8.53125-6.917968 15.453125-15.453125 15.453125h30.996094c8.535156 0 15.453125-6.921875 15.453125-15.453125v-127.746094c0-8.535156-6.917969-15.453125-15.453125-15.453125zm0 0" fill="#d1c4c4"/><path d="m240.546875 301.84375h30.90625v194.703125h-30.90625zm0 0" fill="#685c79"/><path d="m316.859375 277.417969h-130.988281c0-31.171875 25.269531-56.445313 56.441406-56.445313h18.105469c31.171875 0 56.441406 25.273438 56.441406 56.445313zm0 0" fill="#ffd659"/><path d="m260.417969 220.972656h-18.105469c-2.34375 0-4.652344.160156-6.921875.4375 27.90625 3.414063 49.523437 27.179688 49.523437 56.007813h31.945313c0-31.171875-25.269531-56.445313-56.441406-56.445313zm0 0" fill="#ffbd54"/><path d="m264.757812 207.582031c0 7.394531-5.996093 13.390625-13.394531 13.390625-7.394531 0-13.390625-5.996094-13.390625-13.390625 0-7.398437 5.996094-13.394531 13.390625-13.394531 7.398438 0 13.394531 5.996094 13.394531 13.394531zm0 0" fill="#ffbd54"/><path d="m120.804688 3.484375 12.726562 19.605469c1.371094 2.109375 3.691406 3.414062 6.203125 3.476562l23.3125.617188c6.328125.167968 9.71875 7.535156 5.742187 12.464844l-14.65625 18.183593c-1.578124 1.957031-2.09375 4.570313-1.378906 6.984375l6.632813 22.421875c1.800781 6.085938-4.136719 11.59375-10.046875 9.320313l-21.78125-8.367188c-2.347656-.902344-4.984375-.589844-7.054688.839844l-19.214844 13.242188c-5.210937 3.589843-12.277343-.371094-11.953124-6.707032l1.195312-23.351562c.128906-2.515625-.988281-4.9375-2.980469-6.46875l-18.511719-14.238282c-5.019531-3.863281-3.449218-11.820312 2.660157-13.464843l22.519531-6.066407c2.429688-.652343 4.378906-2.460937 5.214844-4.835937l7.777344-22.039063c2.109374-5.980468 10.144531-6.9375 13.59375-1.617187zm0 0" fill="#ffd659"/><path d="m168.789062 39.652344c3.976563-4.933594.582032-12.300782-5.742187-12.46875l-23.3125-.613282c-2.515625-.066406-4.832031-1.371093-6.203125-3.480468l-12.726562-19.605469c-3.449219-5.320313-11.484376-4.363281-13.59375 1.617187l-.410157 1.160157c10.179688 39.027343 32.714844 45.339843 36.433594 87.953125l6.105469 2.347656c5.910156 2.269531 11.847656-3.238281 10.046875-9.324219l-6.632813-22.417969c-.714844-2.417968-.199218-5.03125 1.378906-6.988281zm0 0" fill="#ffbd54"/><path d="m408.523438 132.777344 4.128906 17.691406c.445312 1.90625 1.808594 3.476562 3.640625 4.199219l17.011719 6.710937c4.617187 1.820313 5.144531 8.09375.894531 10.617188l-15.664063 9.296875c-1.6875 1.003906-2.765625 2.765625-2.886718 4.71875l-1.109376 18.101562c-.300781 4.914063-6.152343 7.328125-9.898437 4.089844l-13.808594-11.945313c-1.488281-1.285156-3.515625-1.765624-5.421875-1.285156l-17.699218 4.480469c-4.800782 1.21875-8.945313-3.566406-7.011719-8.09375l7.128906-16.679687c.765625-1.796876.59375-3.855469-.464844-5.507813l-9.828125-15.335937c-2.667968-4.160157.621094-9.53125 5.5625-9.089844l18.214844 1.636718c1.964844.175782 3.882812-.617187 5.136719-2.121093l11.625-13.960938c3.15625-3.785156 9.332031-2.324219 10.449219 2.476563zm0 0" fill="#ffd659"/><path d="m418.53125 181.292969c-1.6875 1-2.761719 2.765625-2.882812 4.71875l-1.113282 18.101562c-.296875 4.917969-6.152344 7.332031-9.894531 4.09375l-1.992187-1.730469c6.179687-31.050781-5.523438-45.964843-6.226563-74.1875l1.65625-1.988281c3.152344-3.785156 9.328125-2.324219 10.445313 2.472657l4.128906 17.695312c.449218 1.90625 1.800781 3.476562 3.644531 4.199219l17.011719 6.707031c4.605468 1.820312 5.140625 8.101562.894531 10.621094zm0 0" fill="#ffbd54"/><path d="m496.546875 512h-481.09375c-8.535156 0-15.453125-6.917969-15.453125-15.453125s6.917969-15.453125 15.453125-15.453125h481.09375c8.535156 0 15.453125 6.917969 15.453125 15.453125s-6.917969 15.453125-15.453125 15.453125zm0 0" fill="#ebe4e2"/><path d="m496.546875 481.09375h-30.902344c8.535157 0 15.453125 6.921875 15.453125 15.453125 0 8.535156-6.917968 15.453125-15.453125 15.453125h30.902344c8.535156 0 15.453125-6.917969 15.453125-15.453125s-6.917969-15.453125-15.453125-15.453125zm0 0" fill="#d1c4c4"/><path d="m120.347656 193.546875c0 11.378906-9.226562 20.601563-20.605468 20.601563-11.378907 0-20.605469-9.222657-20.605469-20.601563 0-11.382813 9.226562-20.605469 20.605469-20.605469 11.378906 0 20.605468 9.222656 20.605468 20.605469zm0 0" fill="#51c4f5"/><path d="m372.789062 60.359375c0 11.378906-9.226562 20.605469-20.605468 20.605469s-20.605469-9.226563-20.605469-20.605469 9.226563-20.601563 20.605469-20.601563 20.605468 9.222657 20.605468 20.601563zm0 0" fill="#51c4f5"/><path d="m419.886719 348.714844h-321.417969c-2.273438 0-4.121094-1.84375-4.121094-4.121094v-48.390625c0-11.394531 9.238282-20.628906 20.632813-20.628906h288.394531c11.394531 0 20.632812 9.234375 20.632812 20.628906v48.390625c0 2.277344-1.847656 4.121094-4.121093 4.121094zm0 0" fill="#ff2c5c"/><path d="m403.375 275.574219h-30.902344c11.394532 0 20.632813 9.234375 20.632813 20.628906v52.511719h26.78125c2.273437 0 4.121093-1.84375 4.121093-4.121094v-48.390625c0-11.394531-9.238281-20.628906-20.632812-20.628906zm0 0" fill="#e62753"/></svg>