<svg height="512pt" viewBox="0 0 512 512" width="512pt" xmlns="http://www.w3.org/2000/svg"><path d="m391 182h30v90h-30zm0 0" fill="#3e5959"/><path d="m406 182h15v90h-15zm0 0" fill="#384949"/><path d="m301 272h-30v-30h30l30 14.0625zm0 0" fill="#4a696f"/><path d="m301 182v60h-165v123l-60 13.199219v-196.199219c0-18.300781 14.398438-29.699219 30-30h.300781c18.597657 0 25.199219 15 42 30zm0 0" fill="#ff7816"/><path d="m301 182v60h-165v123l-30 6.601562v-219.601562h.300781c18.597657 0 25.199219 15 42 30zm0 0" fill="#ff4b00"/><path d="m166 107c0 24.898438-20.097656 45-45 45-5.398438 0-10.199219-.902344-15-2.699219-17.402344-6-30-22.800781-30-42.300781s12.597656-36.300781 30-42.300781c4.800781-1.800781 9.601562-2.699219 15-2.699219 24.902344 0 45 20.097656 45 45zm0 0" fill="#ff7816"/><path d="m277.621094 332h-156.621094v60h113.378906l39.695313 120 56.925781-18.96875zm0 0" fill="#ff4b00"/><path d="m106 302c-57.898438 0-106 47.101562-106 105s48.101562 105 106 105 105-47.101562 105-105-47.101562-105-105-105zm0 0" fill="#3e5959"/><path d="m211 407c0 57.898438-47.101562 105-105 105v-210c57.898438 0 105 47.101562 105 105zm0 0" fill="#384949"/><path d="m181 407c0 41.398438-33.601562 75-75 75s-75-33.601562-75-75 33.601562-75 75-75 75 33.601562 75 75zm0 0" fill="#c6e2e7"/><path d="m181 407c0 41.398438-33.601562 75-75 75v-150c41.398438 0 75 33.601562 75 75zm0 0" fill="#a8d3d8"/><path d="m376 0h60v212h-60zm0 0" fill="#4a696f"/><path d="m301 242h211v270h-211zm0 0" fill="#4a696f"/><path d="m166 107c0 24.898438-20.097656 45-45 45-5.398438 0-10.199219-.902344-15-2.699219v-84.601562c4.800781-1.800781 9.601562-2.699219 15-2.699219 24.902344 0 45 20.097656 45 45zm0 0" fill="#ff4b00"/><g fill="#3e5959"><path d="m406 0h30v212h-30zm0 0"/><path d="m406 242h106v270h-106zm0 0"/></g></svg>